<!-- icon666.com - MILLIONS vector ICONS FREE --><svg id="Capa_1" enable-background="new 0 0 512 512" viewBox="0 0 512 512" xmlns="http://www.w3.org/2000/svg"><ellipse cx="256" cy="407.02" fill="#825fff" rx="237.328" ry="96.98"></ellipse><path d="m256 486c-123.645 0-225.188-38.64-236.302-87.98-.668 2.964-1.026 5.965-1.026 9 0 53.561 106.255 96.98 237.328 96.98s237.328-43.419 237.328-96.98c0-3.035-.359-6.036-1.026-9-11.114 49.34-112.657 87.98-236.302 87.98z" fill="#6b54dd"></path><path d="m413.13 383.81c0 29.63-53.56 54.38-124.86 60.2-10.42.85-21.21 1.3-32.27 1.3-9.3 0-18.41-.32-27.27-.93-73.78-5.05-129.86-30.25-129.86-60.57 0 0 .25-8.41 11.15-36.78 5.3-13.79 13.12-32.28 24.64-56.82 7.63-16.24 16.88-35.12 28.11-57.03 19.58-38.21 21.95-77.74 37-101.04 8.58-13.28 17.64-17.84 25.68-23.21 6.65-4.46 12.61-9.47 17-20.46 2.61-6.51 7.15-16.16 13.06-26.54 16.11-28.27 42.41-61.94 67.54-52.22 26.04 10.07-15.56 73.56-.3 104.07 15.25 30.51 15.76 42.42 0 67.96-11.28 18.26 21.54 59.69 50.89 107.57 11.15 18.19 21.81 37.33 29.34 56.47 4.06 10.3 7.21 20.6 9.05 30.76.72 2.39 1.1 4.81 1.1 7.27z" fill="#a67eff"></path><path d="m411.606 374.386c-9.177 25.733-59.039 46.376-123.336 51.624-10.42.85-21.21 1.3-32.27 1.3-9.3 0-18.41-.32-27.27-.93-66.17-4.529-118.093-25.267-128.103-51.368-1.686 6.437-1.757 8.798-1.757 8.798 0 30.32 56.08 55.52 129.86 60.57 8.86.61 17.97.93 27.27.93 11.06 0 21.85-.45 32.27-1.3 71.3-5.82 124.86-30.57 124.86-60.2 0-2.46-.38-4.88-1.1-7.27-.13-.717-.281-1.436-.424-2.154z" fill="#8f73f4"></path><g fill="#ffdc00"><path d="m403.84 358.34-.84-11.96c-.019-.193-.02-.571-.02-.6-7.53-19.14-18.19-38.28-29.34-56.47-3.34.14-6.61 1.82-8.62 5.04l-6.32 10.17c-1.47 2.37-3.79 4.07-6.48 4.74l-11.57 2.9c-7.67 1.92-10.69 11.27-5.61 17.37l7.66 9.18c1.79 2.13 2.68 4.89 2.48 7.67l-.83 11.96c-.55 7.94 7.35 13.71 14.68 10.73l11.05-4.49c2.58-1.05 5.45-1.05 8.02 0l11.05 4.49c7.34 2.98 15.24-2.79 14.69-10.73z"></path><path d="m297.55 101.73c5.09-6.09 2.07-15.44-5.61-17.36l-11.56-2.9c-2.69-.67-5.02-2.37-6.49-4.74l-6.31-10.17c-2.7-4.35-7.72-5.9-12.07-4.63l-.001.001c-5.909 10.38-10.449 20.029-13.059 26.539-4.39 10.99-10.35 16-17 20.46l1.66 1.99c1.79 2.13 2.67 4.88 2.48 7.67l-.83 11.96c-.56 7.93 7.35 13.71 14.68 10.73l11.05-4.49c2.57-1.05 5.45-1.05 8.02 0l11.05 4.49c7.33 2.98 15.24-2.8 14.69-10.73l-.84-11.96c-.19-2.79.7-5.54 2.48-7.67z"></path><path d="m289.89 423.88 7.66-9.19c5.09-6.09 2.07-15.44-5.61-17.36l-11.56-2.9c-2.69-.67-5.02-2.37-6.49-4.74l-6.31-10.17c-4.19-6.75-13.96-6.75-18.15 0l-6.32 10.17c-1.47 2.37-3.79 4.07-6.49 4.74l-11.56 2.9c-7.68 1.92-10.69 11.27-5.61 17.36l7.66 9.19c1.79 2.13 2.67 4.88 2.48 7.67l-.83 11.96c-.02.29-.03.59-.03.87 8.86.61 17.97.93 27.27.93 11.06 0 21.85-.45 32.27-1.3 0-.17-.86-12.46-.86-12.46-.19-2.79.7-5.54 2.48-7.67z"></path></g><path d="m288.527 425.988c-.086.007-.171.015-.257.022-10.42.85-21.21 1.3-32.27 1.3-9.3 0-18.41-.32-27.27-.93-.021-.001-.042-.003-.063-.005.72 1.607 1.046 3.381.923 5.175l-.83 11.96c-.02.29-.03.59-.03.87 8.86.61 17.97.93 27.27.93 11.06 0 21.85-.45 32.27-1.3 0-.17-.86-12.46-.86-12.46-.132-1.94.269-3.856 1.117-5.562z" fill="#ffbf00"></path><path d="m267.577 218.407 6.314 10.167c1.47 2.367 3.796 4.067 6.489 4.742l11.564 2.898c7.676 1.924 10.695 11.27 5.609 17.365l-7.662 9.182c-1.784 2.138-2.672 4.889-2.478 7.673l.833 11.958c.553 7.938-7.351 13.714-14.685 10.732l-11.049-4.492c-2.572-1.046-5.448-1.046-8.02 0l-11.049 4.492c-7.334 2.982-15.238-2.795-14.685-10.732l.833-11.958c.194-2.784-.695-5.535-2.478-7.673l-7.662-9.182c-5.086-6.095-2.066-15.441 5.609-17.365l11.564-2.898c2.692-.675 5.019-2.375 6.489-4.742l6.314-10.167c4.19-6.748 13.96-6.748 18.15 0z" fill="#ffdc00"></path><path d="m178.03 329.53-7.66 9.18c-1.78 2.13-2.67 4.89-2.48 7.67l.84 11.96c.55 7.94-7.35 13.71-14.69 10.73l-11.05-4.49c-2.57-1.05-5.44-1.05-8.02 0l-11.04 4.49c-7.34 2.98-15.24-2.79-14.69-10.73l.78-11.31c5.3-13.79 13.12-32.28 24.64-56.82 4.61-2.04 10.42-.66 13.4 4.14l6.31 10.17c1.47 2.37 3.8 4.07 6.49 4.74l11.57 2.9c7.67 1.92 10.69 11.27 5.6 17.37z" fill="#ffdc00"></path><path d="m91.065 383.848c-.002.074-.003.149-.003.223 0 12.511 7.234 30.761 41.699 46.659 24.609 11.351 58.491 18.995 95.402 21.521 9.152.63 18.519.95 27.838.95 11.063 0 22.145-.447 32.941-1.328 22.351-1.825 43.115-5.438 61.713-10.741 3.991-1.138 6.304-5.296 5.166-9.287s-5.294-6.301-9.287-5.166c-15.545 4.433-32.75 7.624-51.231 9.514l-.337-4.805c-.059-.866.209-1.702.759-2.362l7.669-9.199c4.072-4.872 5.327-11.389 3.359-17.434-1.963-6.024-6.793-10.535-12.916-12.066l-11.595-2.909c-.803-.201-1.49-.704-1.933-1.419l-6.322-10.192c-3.352-5.399-9.138-8.623-15.476-8.623-6.339 0-12.124 3.224-15.474 8.62l-6.335 10.195c-.444.715-1.128 1.219-1.945 1.422l-11.575 2.904c-6.124 1.531-10.952 6.038-12.915 12.056-1.972 6.045-.721 12.564 3.345 17.438l7.694 9.23c.537.639.8 1.47.741 2.33l-.367 5.289c-72.241-6.365-115.251-31.124-115.586-52.346.07-.685.466-3.729 2.437-10.536.151.117.298.238.453.351 5.117 3.71 11.668 4.506 17.532 2.126l11.062-4.5c.765-.311 1.605-.313 2.374.002l11.073 4.5c5.788 2.35 12.469 1.537 17.526-2.127 5.145-3.729 7.954-9.75 7.513-16.112l-.84-11.968c-.058-.853.216-1.711.758-2.359l7.674-9.197c4.07-4.878 5.324-11.4 3.353-17.446-1.962-6.019-6.788-10.527-12.906-12.059l-11.603-2.909c-.803-.201-1.489-.703-1.933-1.42l-6.323-10.191c-2.007-3.233-4.917-5.629-8.223-7.062 6.996-14.604 14.788-30.296 23.263-46.832 2.176-4.245 4.269-8.754 6.223-13.4 1.609-3.826-.188-8.23-4.014-9.84-3.825-1.605-8.23.189-9.839 4.014-1.808 4.299-3.741 8.462-5.744 12.372-10.535 20.553-20.048 39.855-28.278 57.371-5.932 12.636-11.211 24.37-15.802 35.11-64.308 19.58-101.116 50.491-101.116 85.113 0 27.952 24.43 53.994 68.791 73.328 3.956 1.727 8.67-.343 10.096-4.408 1.284-3.662-.535-7.818-4.091-9.367-38.542-16.798-59.768-37.948-59.768-59.552 0-25.199 29.066-49.683 78.582-66.88-.544 1.38-1.078 2.747-1.591 4.083-10.831 28.188-11.62 37.7-11.668 39.321zm133.487 23.195c.208-.638.78-1.764 2.279-2.139l11.563-2.901c4.623-1.147 8.557-4.016 11.075-8.075l6.334-10.194c1.242-2 4.171-2.003 5.415-.001l6.322 10.192c2.518 4.056 6.451 6.925 11.058 8.073l11.588 2.908c2.321.579 3.188 3.475 1.671 5.292l-7.67 9.2c-3.042 3.641-4.539 8.262-4.213 13.028l.351 4.995c-14.392.889-29.188.982-43.654.274l.367-5.285c.324-4.771-1.177-9.398-4.21-13.006l-7.675-9.209c-1.057-1.266-.773-2.627-.601-3.152zm-84.959-110.044c.719.187 1.401.634 1.879 1.405l6.321 10.187c2.517 4.06 6.45 6.93 11.061 8.079l11.595 2.906c2.32.58 3.178 3.486 1.665 5.3l-7.67 9.192c-3.043 3.641-4.541 8.263-4.215 13.029l.841 11.975c.161 2.333-2.172 4.173-4.393 3.271l-11.058-4.494c-4.414-1.802-9.283-1.804-13.707-.004l-11.056 4.497c-2.223.9-4.557-.932-4.395-3.272l.703-10.193c5.669-14.651 13.203-32.08 22.429-51.878z"></path><path d="m303.399 258.41c4.067-4.874 5.319-11.391 3.352-17.434-1.962-6.02-6.789-10.531-12.914-12.067l-11.585-2.904c-.809-.202-1.499-.708-1.945-1.426l-6.325-10.186c-3.352-5.397-9.137-8.62-15.475-8.62s-12.124 3.222-15.477 8.62l-6.325 10.187c-.445.717-1.136 1.223-1.945 1.425l-11.585 2.904c-6.125 1.535-10.953 6.047-12.914 12.068-1.969 6.042-.716 12.559 3.351 17.433l7.676 9.199c.547.655.816 1.491.756 2.35l-.835 11.98c-.443 6.357 2.366 12.38 7.514 16.111 5.12 3.71 11.671 4.504 17.524 2.124l11.07-4.501c.766-.312 1.611-.31 2.374 0l11.071 4.502c5.786 2.352 12.467 1.538 17.522-2.125 5.148-3.731 7.958-9.754 7.515-16.111l-.835-11.981c-.06-.859.209-1.693.757-2.35zm-11.539-9.628-7.674 9.198c-3.047 3.65-4.542 8.276-4.21 13.024l.835 11.98c.161 2.329-2.169 4.168-4.386 3.27l-11.07-4.501c-4.371-1.778-9.325-1.778-13.696 0l-11.069 4.5c-2.215.901-4.549-.94-4.387-3.269l.835-11.981c.331-4.749-1.165-9.374-4.21-13.022l-7.675-9.199c-1.516-1.817-.64-4.714 1.677-5.294l11.585-2.904c4.616-1.158 8.543-4.025 11.058-8.077l6.325-10.185c1.243-2.002 4.176-2.003 5.419 0l6.324 10.185c2.515 4.052 6.443 6.919 11.059 8.077l11.585 2.904c2.315.58 3.191 3.476 1.675 5.294z"></path><path d="m400.985 322.464c-5.535-11.188-12.331-23.315-20.718-36.997-6.156-10.041-12.403-19.711-18.445-29.062-11.077-17.143-21.539-33.336-27.757-46.388-7.161-15.031-6.561-21.59-4.795-24.449 9.139-14.811 12.839-25.291 12.77-36.17-.077-12.045-5.03-24.391-12.444-39.224-5.978-11.953-.734-32.774 3.894-51.145 2.932-11.643 5.703-22.64 5.986-31.973.387-12.816-4.185-21.158-13.59-24.796-32.237-12.465-62.021 29.487-76.907 55.608-5.369 9.433-10.3 19.459-13.532 27.52-3.782 9.468-8.686 13.321-14.227 17.038-1.088.726-2.196 1.437-3.318 2.158-7.249 4.657-16.271 10.453-24.549 23.266-8.08 12.509-12.707 29.034-17.606 46.528-1.397 4.987-2.841 10.144-4.404 15.365-1.19 3.976 1.068 8.164 5.044 9.353 3.975 1.19 8.163-1.067 9.353-5.043 1.601-5.35 3.064-10.572 4.478-15.623 4.783-17.079 8.914-31.829 15.758-42.426 5.213-8.068 10.466-12.383 15.923-16.077l-.686 9.877c-.448 6.353 2.357 12.375 7.504 16.108 5.056 3.668 11.737 4.487 17.527 2.133l11.085-4.505c.758-.309 1.594-.309 2.364.006l11.07 4.499c5.854 2.378 12.401 1.581 17.523-2.127 5.149-3.732 7.961-9.752 7.52-16.111l-.841-11.968c-.059-.866.208-1.702.759-2.362l7.669-9.199c4.072-4.872 5.327-11.389 3.359-17.434-1.963-6.024-6.793-10.535-12.916-12.065l-11.595-2.909c-.803-.201-1.49-.704-1.933-1.419l-6.322-10.192c-1.628-2.623-3.855-4.714-6.416-6.181 6.257-9.917 14.37-21.065 23.457-29.382 11.113-10.171 21.015-13.68 29.439-10.421 1.486.574 4.251 1.645 3.989 10.324-.234 7.7-2.81 17.928-5.538 28.758-5.266 20.903-11.234 44.597-2.763 61.535 14.4 28.808 14.449 37.896.329 60.779-11.448 18.532 7.077 47.204 32.717 86.887 4.49 6.949 9.095 14.076 13.671 21.372-1.561 1.264-2.931 2.788-4.028 4.545l-6.335 10.195c-.444.716-1.127 1.219-1.934 1.421l-11.588 2.905c-6.118 1.531-10.944 6.038-12.908 12.055-1.973 6.044-.726 12.565 3.342 17.452l7.692 9.216c.531.633.801 1.474.74 2.329l-.832 11.983c-.44 6.359 2.371 12.38 7.518 16.109 5.055 3.661 11.73 4.472 17.515 2.122l11.073-4.5c.768-.314 1.607-.313 2.375.001l11.073 4.5c5.86 2.378 12.409 1.582 17.526-2.127.009-.007.017-.014.026-.02.292 1.35.565 2.69.804 4.008.051.28.117.556.199.828.526 1.748.783 3.421.783 5.117 0 11.176-11.178 22.653-31.476 32.317-3.502 1.668-5.182 5.882-3.776 9.5 1.561 4.016 6.341 5.926 10.237 4.069 26.197-12.473 40.043-28.34 40.043-45.886 0-2.998-.435-6.031-1.295-9.024-1.837-9.965-4.998-20.672-9.395-31.829-.284-.722-.581-1.451-.876-2.178 48.469 17.168 76.886 41.409 76.886 66.284 0 22.369-23.681 44.876-64.97 61.747-44.028 17.992-102.729 27.9-165.289 27.9-52.378 0-101.844-6.882-143.051-19.901-3.959-1.249-8.179.944-9.429 4.901-1.25 3.958.944 8.178 4.901 9.429 42.652 13.478 93.684 20.602 147.578 20.602 137.545 0 245.287-45.979 245.287-104.675 0-34.44-36.516-65.266-100.302-84.861zm-122.388-234.013 11.588 2.908c2.321.579 3.188 3.475 1.671 5.292l-7.67 9.2c-3.042 3.642-4.539 8.263-4.213 13.028l.84 11.976c.162 2.329-2.179 4.169-4.393 3.27l-11.057-4.493c-4.422-1.807-9.294-1.807-13.705-.006l-11.072 4.499c-2.214.902-4.546-.943-4.382-3.269l.833-11.992c.199-2.93-.297-5.804-1.407-8.424 4.99-4.175 9.964-9.941 13.769-19.467 2.53-6.312 6.383-14.293 10.574-21.959.462.239.896.614 1.243 1.173l6.322 10.192c2.52 4.056 6.452 6.925 11.059 8.072zm116.683 273.519c-.532.386-1.639.946-3.052.372l-11.058-4.493c-4.414-1.804-9.282-1.806-13.705-.006l-11.072 4.499c-2.216.904-4.543-.942-4.382-3.269l.83-11.963c.343-4.77-1.157-9.407-4.209-13.039l-7.67-9.19c-1.514-1.817-.643-4.727 1.674-5.307l11.579-2.903c4.615-1.149 8.544-4.018 11.059-8.075l5.787-9.313c11.127 18.593 19.071 34.108 24.754 48.323l.805 11.465c.111 1.597-.792 2.502-1.34 2.899z"></path></svg>